<?xml version="1.0" encoding="utf-8"?>
<!-- Generator: Adobe Illustrator 24.0.1, SVG Export Plug-In . SVG Version: 6.00 Build 0)  -->
<svg version="1.1" id="Layer_1" xmlns="http://www.w3.org/2000/svg" xmlns:xlink="http://www.w3.org/1999/xlink" x="0px" y="0px"
	 viewBox="0 0 141.7 141.7" style="enable-background:new 0 0 141.7 141.7;" xml:space="preserve">
<style type="text/css">
	.st0{fill:#A4D0CE;}
	.st1{fill:#FFFFFF;}
	.st2{fill:#EBDEC3;}
	.st3{fill:#3F8F8C;}
	.st4{fill:#0E7470;}
	.st5{fill:#67B1AE;}
	.st6{fill:#093A38;}
</style>
<g>
	<path class="st0" d="M135.2,77.4c-4.5-4.9-10-8.4-15.8-11.3c-7.8-3.9-16-6.9-24.3-9.6c-14.7-4.9-29.7-8.7-44.2-14.2
		c-7.1-2.7-14.1-5.7-20.3-10.2c-3.9-2.9-7.5-6-8.7-10.7c-2.3,2.3-4.5,4.8-6.5,7.5c0.1,1,0.2,2,0.5,2.9c1.5,5.5,4.9,9.5,9.3,12.9
		c4.1,3.1,8.5,5.6,13.2,7.7c6.8,3.1,13.9,5.5,21,7.9c6.6,2.1,13.2,4.1,19.8,6.2c11.3,3.6,22.6,7.2,33.1,13
		c6.5,3.6,12.4,8.1,16.3,14.7c1.9,3.3,3,6.8,3.2,10.6c0,0.3,0,0.5,0,0.8c3.9-6.7,6.6-14,8.1-21.9C138.4,81.4,136.9,79.3,135.2,77.4z
		"/>
	<path class="st1" d="M30.5,32c6.2,4.5,13.2,7.6,20.3,10.2c14.5,5.4,29.5,9.3,44.2,14.2c8.3,2.7,16.5,5.7,24.3,9.6
		c5.8,3,11.3,6.5,15.8,11.3c1.7,1.9,3.2,4,4.4,6.2c0.4-2.1,0.8-5.3,1-8.4c-0.8-1.1-1.6-2.2-2.6-3.1c-3.5-3.4-5.3-7.7-7.2-11.9
		c-1.1-2.5-2.7-4.5-5-6.1c-3.9-2.6-5.6-6.5-6.9-10.7c-1.1-3.8-2.3-4.7-6.2-5c-0.6,0-1.2-0.1-1.9-0.1c-2.7,0-4.3-1.5-5.4-3.7
		c-0.7-1.5-1.3-3-2.1-4.4c-2.1-3.8-6.2-5.4-10.2-4c-2.5,0.9-4.9,1-7-0.8c-2.8-2.4-5.9-2.5-9.2-1.6c-2,0.5-3.9,1-6,1.1
		c-3.8,0.2-6.7-1-8.6-4.4c-0.9-1.7-2.3-2.3-4.3-1.9c-3.8,0.8-7.6,1.6-11.5,1.8c-6.8,0.2-13.3-0.4-19.5-3.6c-1.1,0.8-2.7,2.1-5.2,4.7
		C23,26,26.6,29.2,30.5,32z"/>
	<path class="st2" d="M71,1C54.3,1,39,6.8,27,16.6c6.1,3.2,12.7,3.8,19.5,3.6c3.9-0.1,7.7-0.9,11.5-1.8c1.9-0.4,3.3,0.2,4.3,1.9
		c1.9,3.4,4.8,4.6,8.6,4.4c2.1-0.1,4-0.6,6-1.1c3.3-0.9,6.5-0.8,9.2,1.6c2.1,1.8,4.5,1.7,7,0.8c4.1-1.4,8.1,0.2,10.2,4
		c0.8,1.4,1.4,3,2.1,4.4c1.1,2.2,2.7,3.7,5.4,3.7c0.6,0,1.2,0.1,1.9,0.1c3.9,0.3,5.1,1.2,6.2,5c1.2,4.3,3,8.2,6.9,10.7
		c2.3,1.5,3.8,3.6,5,6.1c1.9,4.2,3.8,8.5,7.2,11.9c1,1,1.8,2,2.6,3.1c0.1-1.5,0.2-3,0.2-4.5C140.8,32.2,109.6,1,71,1z"/>
	<path class="st3" d="M94.8,107.1c-7.4-5.9-15.8-9.9-24.4-13.7c-11.2-5-22.8-9.1-34-14.3c-7.5-3.5-14.8-7.3-21-12.9
		C9.8,60.9,6.1,54.9,5.2,47.9c-1.7,4.9-2.9,10-3.4,15.3c0.8,2.3,1.9,4.5,3.3,6.6c4,6.3,9.5,11.1,15.5,15.3c7.6,5.3,15.8,9.6,24,13.9
		c7.1,3.7,14.2,7.4,21.1,11.5c7.9,4.7,15.4,9.9,21.2,17c2.4,2.9,4.3,6.1,5.4,9.6c5.5-1.8,10.8-4.2,15.6-7.2c0-2.2-0.3-4.4-1-6.6
		C104.8,116.5,100.3,111.4,94.8,107.1z"/>
	<path class="st4" d="M71,140.4c7.4,0,14.5-1.2,21.2-3.3c-1.1-3.5-3-6.7-5.4-9.6c-5.9-7.2-13.4-12.3-21.2-17
		c-6.9-4.1-14-7.8-21.1-11.5c-8.2-4.3-16.4-8.6-24-13.9C14.5,80.8,9,76,5,69.7c-1.4-2.1-2.4-4.3-3.3-6.6c-0.3,2.5-0.4,5-0.4,7.5
		C1.3,109.2,32.5,140.4,71,140.4z"/>
	<path class="st5" d="M131.5,105.5c0-0.3,0-0.5,0-0.8c-0.2-3.8-1.2-7.3-3.2-10.6c-3.9-6.6-9.7-11-16.3-14.7
		c-10.4-5.8-21.7-9.5-33.1-13c-6.6-2.1-13.2-4-19.8-6.2c-7.1-2.3-14.2-4.8-21-7.9c-4.7-2.1-9.1-4.6-13.2-7.7
		c-4.4-3.4-7.9-7.4-9.3-12.9c-0.2-1-0.4-1.9-0.5-2.9C11,34.5,7.5,41,5.2,47.9c1,7,4.6,13,10.3,18.2c6.2,5.6,13.5,9.4,21,12.9
		c11.2,5.2,22.8,9.4,34,14.3c8.6,3.8,17,7.8,24.4,13.7c5.4,4.3,9.9,9.4,12,16.2c0.7,2.2,1,4.4,1,6.6c9.7-6,17.7-14.4,23.5-24.2
		C131.5,105.5,131.4,105.5,131.5,105.5z"/>
	<path class="st6" d="M140.5,96.5V114c-0.6,0-1.3,0.1-1.9,0.1c-7.7,0-15.4,0-23.1,0h-2v2c0,7.7,0,15.3,0,23c0,0.6-0.1,1.3-0.1,1.9
		H95.8c0-0.6-0.1-1.3-0.1-1.9c0-7.7,0-15.3,0-23v-2h-2c-7.7,0-15.4,0-23.1,0c-0.6,0-1.3-0.1-1.9-0.1V96.5c0.6,0,1.3-0.1,1.9-0.1
		c7.7,0,15.4,0,23.1,0h2v-2c0-7.7,0-15.3,0-23c0-0.6,0.1-1.3,0.1-1.9h17.6c0,0.6,0.1,1.3,0.1,1.9c0,7.7,0,15.3,0,23v2h2
		c7.7,0,15.4,0,23.1,0C139.2,96.4,139.9,96.5,140.5,96.5"/>
</g>
</svg>
